# File created by Blade
# Date/Time:  Thu Sep 25 18:48:06 2014
# Frame Rate: 120.000 fps
#------------------------------------------------------
:FULLY-SPECIFIED
:DEGREES
1640
root 1.360060 32.636337 2.195949 0.487944 -2.103148 0.634186
Spine -1.346792 -0.019033 -4.461225
Head 23.200863 -9.312404 12.901728
LeftShoulder -2.664575 37.697464 8.842223
LeftArm 43.593122 66.328329 -22.842443
LeftForeArm 27.236846 -0.000000 55.643424
LeftHand -13.639072 -0.000000 -21.166792
LeftHandThumb1 -26.253704 0.000000 33.147579
RightShoulder -18.105438 6.269303 -19.111812
RightArm 8.733633 -30.047993 45.518052
RightForeArm -24.900067 -0.000000 66.674762
RightHand -1.886087 0.000000 11.044364
RightHandThumb1 -24.326973 -0.000000 -32.862282
LeftUpLeg 6.345381 8.791886 3.396460
LeftLeg 0.578880 -0.000000 -0.000000
LeftFoot -13.243735 5.022858 -12.905018
LeftToeBase 11.016182 -0.000000 -0.000000
RightUpLeg 4.225337 -8.630325 -8.174433
RightLeg 4.169706 -0.000000 -0.000000
RightFoot -10.448142 -2.000697 5.705747
RightToeBase 0.959936 -0.000000 -0.000000
1641
root 1.357683 32.635238 2.192500 0.437614 -2.493975 0.639457
Spine -1.269815 -0.028727 -4.776059
Head 23.337221 -9.232556 13.187654
LeftShoulder -2.640477 38.001864 8.664290
LeftArm 44.353104 68.041447 -23.474807
LeftForeArm 29.034265 0.000000 56.733502
LeftHand -13.087434 0.000000 -21.734885
LeftHandThumb1 -26.253704 0.000000 33.147579
RightShoulder -18.154569 6.591934 -19.251680
RightArm 9.448088 -28.395425 44.826782
RightForeArm -24.511462 0.000000 68.930264
RightHand -2.137190 0.000000 10.005295
RightHandThumb1 -24.326973 -0.000000 -32.862282
LeftUpLeg 6.426924 8.961792 3.375735
LeftLeg 0.623855 -0.000000 -0.000000
LeftFoot -13.339163 5.258958 -12.938236
LeftToeBase 11.063032 -0.000000 -0.000000
RightUpLeg 4.138991 -8.379999 -8.186423
RightLeg 4.246483 -0.000000 -0.000000
RightFoot -10.459992 -1.875112 5.619393
RightToeBase 0.947183 -0.000000 -0.000000
1642
root 1.354195 32.634692 2.200938 0.347818 -2.979366 0.655488
Spine -1.216969 0.035566 -5.096201
Head 23.560775 -9.100407 13.418858
LeftShoulder -2.655839 38.418300 8.478918
LeftArm 45.685592 69.793757 -23.548375
LeftForeArm 30.926486 -0.000000 58.054536
LeftHand -13.603907 -0.000000 -22.269458
LeftHandThumb1 -26.253704 0.000000 33.147579
RightShoulder -18.143890 6.908281 -19.452031
RightArm 10.083496 -26.633940 44.333541
RightForeArm -24.124827 -0.000000 71.086204
RightHand -2.215029 -0.000000 9.100580
RightHandThumb1 -24.326973 -0.000000 -32.862282
LeftUpLeg 6.587736 9.331220 3.374218
LeftLeg 0.668115 -0.000000 -0.000000
LeftFoot -13.411807 5.359182 -12.970625
LeftToeBase 11.064687 -0.000000 -0.000000
RightUpLeg 4.101491 -8.093421 -8.221254
RightLeg 4.302908 -0.000000 -0.000000
RightFoot -10.466367 -1.674724 5.558211
RightToeBase 0.954714 -0.000000 -0.000000
1643
root 1.343488 32.634553 2.211443 0.243126 -3.381236 0.594105
Spine -1.165909 0.071811 -5.318594
Head 23.849655 -8.976752 13.699780
LeftShoulder -2.558345 38.905152 8.365632
LeftArm 47.357862 71.476533 -23.417070
LeftForeArm 32.869675 -0.000000 59.408770
LeftHand -13.806145 -0.000000 -23.013347
LeftHandThumb1 -26.253704 0.000000 33.147579
RightShoulder -18.096739 7.193559 -19.628335
RightArm 10.697089 -24.898296 43.706270
RightForeArm -23.529251 -0.000000 73.327199
RightHand -2.409259 0.000000 8.143063
RightHandThumb1 -24.326973 -0.000000 -32.862282
LeftUpLeg 6.769150 9.438102 3.439539
LeftLeg 0.684204 -0.000000 -0.000000
LeftFoot -13.526139 5.646533 -13.051867
LeftToeBase 11.038761 -0.000000 -0.000000
RightUpLeg 4.130830 -7.901890 -8.171289
RightLeg 4.306097 -0.000000 -0.000000
RightFoot -10.421831 -1.481651 5.451831
RightToeBase 0.918327 -0.000000 -0.000000
1644
root 1.340876 32.634415 2.222138 0.166165 -3.782623 0.589761
Spine -1.151970 0.128807 -5.552516
Head 24.132279 -8.800984 13.778840
LeftShoulder -2.477938 39.271132 8.191005
LeftArm 49.485302 73.252490 -22.837008
LeftForeArm 34.652159 -0.000000 60.728893
LeftHand -13.871527 -0.000000 -23.574024
LeftHandThumb1 -26.253704 0.000000 33.147579
RightShoulder -18.106649 7.525811 -19.961302
RightArm 11.289794 -23.210951 43.229499
RightForeArm -23.176358 -0.000000 75.384494
RightHand -2.457394 -0.000000 6.863420
RightHandThumb1 -24.326973 -0.000000 -32.862282
LeftUpLeg 6.907194 9.723013 3.455357
LeftLeg 0.729286 -0.000000 -0.000000
LeftFoot -13.599760 5.749314 -13.095994
LeftToeBase 11.045676 -0.000000 -0.000000
RightUpLeg 4.124793 -7.714147 -8.193012
RightLeg 4.322350 -0.000000 -0.000000
RightFoot -10.390317 -1.252442 5.415548
RightToeBase 0.884986 -0.000000 -0.000000
